<?xml version="1.0" standalone="no"?>
<!DOCTYPE svg PUBLIC "-//W3C//DTD SVG 20010904//EN"
 "http://www.w3.org/TR/2001/REC-SVG-20010904/DTD/svg10.dtd">
<svg version="1.0" xmlns="http://www.w3.org/2000/svg"
 width="595.000000pt" height="572.000000pt" viewBox="0 0 595.000000 572.000000"
 preserveAspectRatio="xMidYMid meet">
<metadata>
Created by potrace 1.16, written by Peter Selinger 2001-2019
</metadata>
<g transform="translate(0.000000,572.000000) scale(0.100000,-0.100000)"
fill="#000000" stroke="none">
<path d="M3098 5683 c-29 -18 -35 -40 -44 -158 -3 -38 -10 -74 -15 -79 -5 -6
-9 -34 -9 -63 0 -28 -4 -62 -9 -75 -5 -13 -14 -54 -21 -93 -12 -75 -14 -81
-54 -164 -14 -30 -26 -61 -26 -68 0 -34 -35 -95 -62 -109 -49 -25 -56 -9 -66
148 -8 128 -10 139 -37 179 -27 37 -30 52 -35 140 -3 59 -10 103 -17 111 -7 6
-13 19 -13 27 0 8 -9 34 -20 57 -23 47 -72 76 -93 55 -9 -9 -13 -120 -17 -404
-7 -475 -17 -533 -82 -472 -20 19 -28 38 -33 87 -4 37 -15 73 -26 87 -11 13
-19 34 -19 46 0 12 -7 28 -15 35 -8 7 -15 25 -15 41 0 15 -4 30 -9 34 -5 3
-15 22 -21 43 -22 68 -83 183 -106 198 -30 20 -72 9 -80 -22 -7 -27 -3 -59 21
-189 9 -49 21 -94 26 -99 5 -6 9 -39 9 -74 0 -35 5 -73 12 -85 6 -12 15 -56
20 -97 20 -184 30 -320 25 -335 -4 -8 -17 -15 -31 -15 -18 0 -31 13 -58 58
-39 66 -74 80 -102 40 -20 -28 -21 -98 -1 -124 9 -12 14 -43 15 -89 0 -43 5
-78 14 -90 7 -11 24 -50 36 -88 19 -55 22 -80 17 -135 -22 -233 -24 -204 16
-248 l35 -39 4 -123 c4 -158 9 -153 -156 -145 -66 3 -125 9 -131 13 -20 15
-146 50 -212 60 -89 13 -260 13 -268 0 -3 -5 -35 -10 -69 -10 -55 0 -74 -6
-140 -40 -42 -22 -82 -40 -90 -40 -7 0 -21 -9 -31 -20 -10 -11 -23 -20 -30
-20 -7 0 -20 -9 -31 -21 -24 -27 -87 -59 -114 -59 -12 0 -33 -6 -48 -14 -15
-7 -58 -19 -97 -25 -94 -17 -199 -47 -260 -77 -28 -13 -55 -24 -60 -24 -6 0
-22 -13 -36 -29 l-26 -30 286 -3 286 -3 67 -33 c37 -17 70 -36 73 -42 12 -19
112 -80 132 -80 12 0 23 -8 26 -19 2 -11 22 -28 43 -38 65 -32 86 -46 154
-101 36 -29 76 -55 90 -59 14 -3 30 -11 35 -17 6 -7 40 -30 76 -52 36 -22 80
-56 98 -76 28 -32 31 -41 25 -77 -5 -31 -11 -41 -25 -41 -14 0 -19 -7 -19 -30
0 -17 -8 -43 -19 -58 -10 -15 -62 -92 -114 -172 -53 -80 -116 -165 -141 -190
-25 -24 -46 -50 -46 -58 0 -7 -24 -36 -53 -65 -30 -29 -66 -72 -82 -97 -15
-25 -42 -57 -58 -71 -17 -14 -36 -39 -41 -55 -23 -63 -91 -165 -114 -171 -12
-3 -33 -24 -47 -47 -20 -35 -23 -50 -18 -97 5 -49 2 -61 -22 -99 -15 -23 -46
-62 -68 -85 -23 -24 -55 -61 -72 -84 -16 -23 -37 -50 -47 -59 -42 -44 -87
-126 -82 -149 8 -28 -40 -103 -111 -176 -48 -50 -49 -63 -5 -69 21 -2 25 -9
28 -41 3 -32 -3 -46 -33 -83 -56 -68 -33 -98 39 -49 20 14 40 25 44 25 4 0 23
13 42 30 42 35 100 42 100 11 0 -11 -7 -32 -15 -48 -8 -15 -16 -39 -19 -53 -3
-14 -19 -47 -37 -73 -39 -59 -34 -77 22 -77 68 0 141 43 217 127 111 122 131
99 113 -123 -7 -93 -8 -151 -2 -157 5 -5 37 -8 70 -5 59 4 62 6 115 64 30 32
55 63 56 68 0 5 19 38 42 73 59 88 68 76 77 -101 8 -154 9 -156 81 -156 37 1
51 6 80 33 65 61 120 142 120 175 0 34 29 72 54 72 8 0 27 -19 43 -42 24 -37
34 -43 68 -46 82 -7 148 40 207 147 l17 31 120 -7 119 -6 16 34 c9 19 31 54
49 79 26 35 41 46 66 48 18 2 38 -1 44 -7 14 -11 93 3 118 22 10 7 30 37 46
67 26 49 34 55 64 57 125 9 202 51 220 118 27 101 32 113 56 124 34 15 93 14
127 -4 45 -24 100 -19 135 11 27 22 31 32 31 72 0 26 -5 65 -10 87 -5 22 -6
43 -1 48 4 4 51 8 105 8 116 1 136 14 136 85 0 56 8 74 32 74 10 0 34 16 52
36 27 29 35 47 39 93 10 93 24 127 57 141 55 23 70 53 70 143 l0 81 51 49 52
49 -5 70 c-5 66 -4 72 21 99 22 24 136 79 164 79 5 0 20 9 34 20 14 11 36 20
48 20 28 0 91 -26 125 -51 69 -53 321 -209 338 -209 4 0 41 -23 81 -50 41 -28
81 -50 88 -50 14 0 81 -38 181 -105 75 -50 105 -59 240 -72 60 -5 65 -4 93 23
16 15 32 42 35 60 7 38 18 49 55 57 17 4 31 18 39 36 7 19 27 37 54 49 47 23
64 49 68 107 l3 40 96 5 c125 7 145 19 154 95 6 46 13 60 36 77 26 20 29 26
26 77 -1 31 1 68 6 84 6 24 2 33 -34 68 l-42 41 7 67 c3 37 9 81 12 98 7 37
-21 68 -71 77 -18 4 -38 13 -45 21 -9 11 -33 15 -86 15 -40 0 -76 5 -79 10 -3
6 -37 10 -75 10 -38 0 -72 5 -75 11 -4 6 -63 10 -158 10 -221 0 -413 14 -423
30 -3 5 -29 9 -57 9 -29 1 -95 8 -147 16 -52 8 -111 18 -132 21 -24 3 -38 11
-41 24 -4 16 -15 19 -65 19 -51 0 -62 3 -67 19 -3 10 -17 22 -30 25 -29 7 -30
16 -11 55 14 26 44 39 138 58 19 4 30 14 38 37 5 17 26 44 45 59 34 27 36 31
30 70 -5 34 -2 48 14 69 14 17 21 41 21 68 0 27 8 53 22 73 16 22 24 50 26 97
3 43 11 73 23 89 27 34 24 49 -17 89 -35 34 -36 36 -33 103 3 60 1 71 -20 93
-14 15 -48 34 -77 43 -48 15 -52 19 -58 52 -4 27 -1 40 16 58 17 18 20 31 15
69 -4 41 -11 53 -52 89 l-48 41 -1 71 c-1 82 -11 98 -66 107 -46 7 -74 39 -60
67 14 24 12 93 -2 123 -12 28 -20 31 -90 41 -74 10 -79 28 -47 168 13 56 13
58 -13 83 l-26 26 -70 -16 c-39 -9 -78 -13 -87 -9 -27 10 -14 69 39 175 25 52
46 100 46 108 0 8 7 24 15 34 8 11 15 29 15 40 -1 76 -66 50 -135 -54 -33 -50
-58 -77 -81 -86 -19 -8 -40 -27 -48 -42 -8 -16 -22 -35 -32 -43 -9 -7 -27 -30
-40 -50 -15 -24 -33 -39 -53 -44 -16 -3 -37 -17 -45 -31 -19 -28 -66 -33 -86
-9 -24 30 13 154 68 229 5 6 14 31 21 56 12 42 21 66 57 160 21 54 18 163 -4
183 -20 18 -49 22 -68 9 -13 -8 -54 -95 -54 -114 0 -13 -82 -181 -132 -268
-14 -25 -35 -63 -48 -85 -12 -22 -28 -47 -36 -56 -8 -8 -14 -20 -14 -25 0 -5
-24 -31 -53 -59 -30 -27 -56 -57 -59 -65 -4 -13 -9 -12 -28 5 -19 17 -21 27
-17 70 3 28 15 71 27 97 12 29 24 86 30 145 5 54 12 117 16 139 4 29 1 51 -10
72 -12 23 -16 59 -16 134 0 85 -4 109 -20 136 -22 36 -42 39 -82 15z"/>
<path d="M16 551 c-9 -15 21 -57 58 -83 56 -38 85 -70 92 -100 8 -41 98 -82
156 -73 47 8 49 26 8 75 -17 19 -30 46 -30 61 0 34 -13 44 -108 87 -79 36
-165 52 -176 33z"/>
</g>
</svg>
